ffmpeg started on 2023-01-29 at 18:15:59
Report written to "D:/java/GitHub/pornMagnetSpringBoot/jiuse911Modeul/Logs/2023-01-29_18-15-21-097_ffreport.log"
Command line:
"D:\\java\\GitHub\\pornMagnetSpringBoot\\ffmpeg.exe" -loglevel warning -i "concat:00.ts|01.ts|02.ts|03.ts|04.ts|05.ts|06.ts|07.ts|08.ts|09.ts|10.ts|11.ts|12.ts|13.ts|14.ts|15.ts|16.ts|17.ts|18.ts|19.ts|20.ts|21.ts|22.ts|23.ts|24.ts|25.ts|26.ts|27.ts|" -map "0:v?" -map "0:a?" -map "0:s?" -metadata "date=2023-01-29T18:15:59.5611816+08:00" -metadata "encoding_tool=" -metadata "title=" -metadata "copyright=" -metadata "comment=" -metadata:s:a:0 "handler_name=" -metadata:s:a:0 "handler=" -c copy -y -bsf:a aac_adtstoasc "D:\\java\\GitHub\\pornMagnetSpringBoot\\Downloads\\\xba\xf3\xc8\xeb\xb3\xac\xc9\xa7\xc3\xc0\xcd\xce\xc8\xcb\xc6\xde\xa3\xac\xb8\xd5\xb2\xe5\xc8\xeb\xbe\xcd\xbf\xaa\xca\xbc\xbd\xd0\xc1\xcb.mp4"
ffmpeg version N-94813-g85386c36e3-ffmpeg-for-N_m3u8DL-CLI Copyright (c) 2000-2019 the FFmpeg developers
  built with gcc 8.2.0 (GCC)
  libavutil      56. 35.100 / 56. 35.100
  libavcodec     58. 56.101 / 58. 56.101
  libavformat    58. 32.104 / 58. 32.104
  libavfilter     7. 58.102 /  7. 58.102
  libavresample   4.  0.  0 /  4.  0.  0
  libswresample   3.  6.100 /  3.  6.100
Input #0, mpegts, from 'concat:00.ts|01.ts|02.ts|03.ts|04.ts|05.ts|06.ts|07.ts|08.ts|09.ts|10.ts|11.ts|12.ts|13.ts|14.ts|15.ts|16.ts|17.ts|18.ts|19.ts|20.ts|21.ts|22.ts|23.ts|24.ts|25.ts|26.ts|27.ts|':
  Duration: 00:04:43.33, start: 1.400000, bitrate: 649 kb/s
  Program 1 
    Metadata:
      service_name    : Service01
      service_provider: FFmpeg
    Stream #0:0[0x100]: Video: h264 ([27][0][0][0] / 0x001B), yuv420p(progressive), 320x240, 24 fps, 24 tbr, 90k tbn, 48 tbc
    Stream #0:1[0x101](und): Audio: aac ([15][0][0][0] / 0x000F), 22050 Hz, stereo, fltp, 125 kb/s
Output #0, mp4, to 'D:\java\GitHub\pornMagnetSpringBoot\Downloads\后入超骚美臀人妻，刚插入就开始叫了.mp4':
  Metadata:
    date            : 2023-01-29T18:15:59.5611816+08:00
    encoder         : Lavf58.32.104
    Stream #0:0: Video: h264 (avc1 / 0x31637661), yuv420p(progressive), 320x240, q=2-31, 24 fps, 24 tbr, 90k tbn, 90k tbc
    Stream #0:1(und): Audio: aac (mp4a / 0x6134706D), 22050 Hz, stereo, fltp, 125 kb/s
Stream mapping:
  Stream #0:0 -> #0:0 (copy)
  Stream #0:1 -> #0:1 (copy)
Press [q] to stop, [?] for help
frame= 6798 fps=0.0 q=-1.0 Lsize=   21070kB time=00:04:43.28 bitrate= 609.3kbits/s speed=4.5e+03x    
video:16486kB audio:4468kB subtitle:0kB other streams:0kB global headers:0kB muxing overhead: 0.553402%
